<svg xmlns="http://www.w3.org/2000/svg" viewBox="0 0 44 44" width="352" height="352" shape-rendering="crispEdges"><title>Clawdia the crab, feeling starving. Fullness 2/10, ate 0 today, real-work streak 0d (best 3d), age 9d.</title><style>.tw{animation:tw 1s steps(1) infinite}.tw2{animation-delay:-.5s}@keyframes tw{50%{opacity:.25}}@media (prefers-reduced-motion:reduce){*{animation:none!important}}</style><rect x=".2" y=".2" width="43.6" height="43.6" rx="3" fill="#21252b" stroke="#3a3f4b" stroke-width=".4"/><clipPath id="scene"><rect width="40" height="28" rx="2"/></clipPath><g transform="translate(2 2)" clip-path="url(#scene)"><rect width="40" height="28" rx="2" fill="#2e2b33"/><rect y="23" width="40" height="5" fill="#38343e"/><rect x="3" y="22" width="1" height="1" fill="#4e4957"/><rect x="4" y="21" width="1" height="2" fill="#4e4957"/><rect x="12" y="22" width="1" height="1" fill="#4e4957"/><rect x="13" y="21" width="1" height="2" fill="#4e4957"/><rect x="30" y="22" width="1" height="1" fill="#4e4957"/><rect x="31" y="21" width="1" height="2" fill="#4e4957"/><rect x="35" y="22" width="1" height="1" fill="#4e4957"/><rect x="36" y="21" width="1" height="2" fill="#4e4957"/><rect x="9" y="23" width="22" height="1" fill="#2d2433" opacity=".18"/><g class="bob"><g><rect x="8" y="8" width="2" height="1" fill="#2d2433"/><rect x="11" y="8" width="2" height="1" fill="#2d2433"/><rect x="27" y="8" width="2" height="1" fill="#2d2433"/><rect x="30" y="8" width="2" height="1" fill="#2d2433"/><rect x="7" y="9" width="1" height="1" fill="#2d2433"/><rect x="8" y="9" width="2" height="1" fill="#b5938e"/><rect x="10" y="9" width="1" height="1" fill="#2d2433"/><rect x="11" y="9" width="2" height="1" fill="#b5938e"/><rect x="13" y="9" width="1" height="1" fill="#2d2433"/><rect x="26" y="9" width="1" height="1" fill="#2d2433"/><rect x="27" y="9" width="2" height="1" fill="#b5938e"/><rect x="29" y="9" width="1" height="1" fill="#2d2433"/><rect x="30" y="9" width="2" height="1" fill="#b5938e"/><rect x="32" y="9" width="1" height="1" fill="#2d2433"/><rect x="7" y="10" width="1" height="1" fill="#2d2433"/><rect x="8" y="10" width="2" height="1" fill="#b5938e"/><rect x="10" y="10" width="1" height="1" fill="#2d2433"/><rect x="11" y="10" width="2" height="1" fill="#b5938e"/><rect x="13" y="10" width="1" height="1" fill="#2d2433"/><rect x="26" y="10" width="1" height="1" fill="#2d2433"/><rect x="27" y="10" width="2" height="1" fill="#b5938e"/><rect x="29" y="10" width="1" height="1" fill="#2d2433"/><rect x="30" y="10" width="2" height="1" fill="#b5938e"/><rect x="32" y="10" width="1" height="1" fill="#2d2433"/><rect x="7" y="11" width="1" height="1" fill="#2d2433"/><rect x="8" y="11" width="5" height="1" fill="#b5938e"/><rect x="13" y="11" width="1" height="1" fill="#2d2433"/><rect x="26" y="11" width="1" height="1" fill="#2d2433"/><rect x="27" y="11" width="5" height="1" fill="#b5938e"/><rect x="32" y="11" width="1" height="1" fill="#2d2433"/><rect x="8" y="12" width="1" height="1" fill="#2d2433"/><rect x="9" y="12" width="3" height="1" fill="#b5938e"/><rect x="12" y="12" width="1" height="1" fill="#2d2433"/><rect x="18" y="12" width="4" height="1" fill="#2d2433"/><rect x="27" y="12" width="1" height="1" fill="#2d2433"/><rect x="28" y="12" width="3" height="1" fill="#b5938e"/><rect x="31" y="12" width="1" height="1" fill="#2d2433"/><rect x="9" y="13" width="1" height="1" fill="#2d2433"/><rect x="10" y="13" width="1" height="1" fill="#b5938e"/><rect x="11" y="13" width="1" height="1" fill="#2d2433"/><rect x="16" y="13" width="2" height="1" fill="#2d2433"/><rect x="18" y="13" width="2" height="1" fill="#decfcb"/><rect x="20" y="13" width="2" height="1" fill="#b5938e"/><rect x="22" y="13" width="3" height="1" fill="#2d2433"/><rect x="28" y="13" width="1" height="1" fill="#2d2433"/><rect x="29" y="13" width="1" height="1" fill="#b5938e"/><rect x="30" y="13" width="1" height="1" fill="#2d2433"/><rect x="9" y="14" width="1" height="1" fill="#2d2433"/><rect x="10" y="14" width="1" height="1" fill="#b5938e"/><rect x="11" y="14" width="1" height="1" fill="#2d2433"/><rect x="14" y="14" width="2" height="1" fill="#2d2433"/><rect x="16" y="14" width="2" height="1" fill="#b5938e"/><rect x="18" y="14" width="2" height="1" fill="#decfcb"/><rect x="20" y="14" width="5" height="1" fill="#b5938e"/><rect x="25" y="14" width="2" height="1" fill="#2d2433"/><rect x="28" y="14" width="1" height="1" fill="#2d2433"/><rect x="29" y="14" width="1" height="1" fill="#b5938e"/><rect x="30" y="14" width="1" height="1" fill="#2d2433"/><rect x="9" y="15" width="1" height="1" fill="#2d2433"/><rect x="10" y="15" width="2" height="1" fill="#b5938e"/><rect x="12" y="15" width="2" height="1" fill="#2d2433"/><rect x="14" y="15" width="13" height="1" fill="#b5938e"/><rect x="27" y="15" width="1" height="1" fill="#2d2433"/><rect x="28" y="15" width="2" height="1" fill="#b5938e"/><rect x="30" y="15" width="1" height="1" fill="#2d2433"/><rect x="10" y="16" width="1" height="1" fill="#2d2433"/><rect x="11" y="16" width="18" height="1" fill="#b5938e"/><rect x="29" y="16" width="1" height="1" fill="#2d2433"/><rect x="11" y="17" width="2" height="1" fill="#2d2433"/><rect x="13" y="17" width="14" height="1" fill="#b5938e"/><rect x="27" y="17" width="2" height="1" fill="#2d2433"/><rect x="12" y="18" width="1" height="1" fill="#2d2433"/><rect x="13" y="18" width="14" height="1" fill="#b5938e"/><rect x="27" y="18" width="1" height="1" fill="#2d2433"/><rect x="12" y="19" width="1" height="1" fill="#2d2433"/><rect x="13" y="19" width="14" height="1" fill="#b5938e"/><rect x="27" y="19" width="1" height="1" fill="#2d2433"/><rect x="13" y="20" width="1" height="1" fill="#2d2433"/><rect x="14" y="20" width="12" height="1" fill="#8b6764"/><rect x="26" y="20" width="1" height="1" fill="#2d2433"/><rect x="12" y="21" width="1" height="1" fill="#2d2433"/><rect x="13" y="21" width="1" height="1" fill="#8b6764"/><rect x="14" y="21" width="1" height="1" fill="#2d2433"/><rect x="15" y="21" width="1" height="1" fill="#8b6764"/><rect x="16" y="21" width="1" height="1" fill="#2d2433"/><rect x="17" y="21" width="1" height="1" fill="#8b6764"/><rect x="18" y="21" width="4" height="1" fill="#2d2433"/><rect x="22" y="21" width="1" height="1" fill="#8b6764"/><rect x="23" y="21" width="1" height="1" fill="#2d2433"/><rect x="24" y="21" width="1" height="1" fill="#8b6764"/><rect x="25" y="21" width="1" height="1" fill="#2d2433"/><rect x="26" y="21" width="1" height="1" fill="#8b6764"/><rect x="27" y="21" width="1" height="1" fill="#2d2433"/><rect x="11" y="22" width="1" height="1" fill="#2d2433"/><rect x="12" y="22" width="1" height="1" fill="#8b6764"/><rect x="13" y="22" width="1" height="1" fill="#2d2433"/><rect x="14" y="22" width="1" height="1" fill="#8b6764"/><rect x="15" y="22" width="1" height="1" fill="#2d2433"/><rect x="16" y="22" width="1" height="1" fill="#8b6764"/><rect x="17" y="22" width="1" height="1" fill="#2d2433"/><rect x="22" y="22" width="1" height="1" fill="#2d2433"/><rect x="23" y="22" width="1" height="1" fill="#8b6764"/><rect x="24" y="22" width="1" height="1" fill="#2d2433"/><rect x="25" y="22" width="1" height="1" fill="#8b6764"/><rect x="26" y="22" width="1" height="1" fill="#2d2433"/><rect x="27" y="22" width="1" height="1" fill="#8b6764"/><rect x="28" y="22" width="1" height="1" fill="#2d2433"/><rect x="12" y="23" width="1" height="1" fill="#2d2433"/><rect x="14" y="23" width="1" height="1" fill="#2d2433"/><rect x="16" y="23" width="1" height="1" fill="#2d2433"/><rect x="23" y="23" width="1" height="1" fill="#2d2433"/><rect x="25" y="23" width="1" height="1" fill="#2d2433"/><rect x="27" y="23" width="1" height="1" fill="#2d2433"/></g><g><rect x="18" y="19" width="1" height="1" fill="#2d2433"/><rect x="20" y="19" width="1" height="1" fill="#2d2433"/><rect x="19" y="20" width="1" height="1" fill="#2d2433"/><rect x="21" y="20" width="1" height="1" fill="#2d2433"/></g><g><rect x="16" y="16" width="1" height="1" fill="#2d2433"/><rect x="18" y="16" width="1" height="1" fill="#2d2433"/><rect x="22" y="16" width="1" height="1" fill="#2d2433"/><rect x="24" y="16" width="1" height="1" fill="#2d2433"/><rect x="17" y="17" width="1" height="1" fill="#2d2433"/><rect x="23" y="17" width="1" height="1" fill="#2d2433"/><rect x="16" y="18" width="1" height="1" fill="#2d2433"/><rect x="18" y="18" width="1" height="1" fill="#2d2433"/><rect x="22" y="18" width="1" height="1" fill="#2d2433"/><rect x="24" y="18" width="1" height="1" fill="#2d2433"/></g></g><g class="tw"><rect x="31" y="2" width="3" height="1" fill="#cbcccf"/><rect x="30" y="3" width="7" height="1" fill="#cbcccf"/><rect x="29" y="4" width="9" height="1" fill="#cbcccf"/><rect x="30" y="5" width="7" height="1" fill="#9d9ea2"/><rect x="31" y="6" width="1" height="1" fill="#b6c7d2"/><rect x="35" y="6" width="1" height="1" fill="#b6c7d2"/><rect x="33" y="7" width="1" height="1" fill="#b6c7d2"/></g></g><g transform="scale(.5)"><rect x="5" y="63" width="2" height="1" fill="#e6e1ec"/><rect x="8" y="63" width="1" height="1" fill="#e6e1ec"/><rect x="13" y="63" width="1" height="1" fill="#e6e1ec"/><rect x="16" y="63" width="1" height="1" fill="#e6e1ec"/><rect x="20" y="63" width="1" height="1" fill="#e6e1ec"/><rect x="22" y="63" width="2" height="1" fill="#e6e1ec"/><rect x="26" y="63" width="3" height="1" fill="#e6e1ec"/><rect x="31" y="63" width="1" height="1" fill="#e6e1ec"/><rect x="37" y="63" width="3" height="1" fill="#9da5b4"/><rect x="41" y="63" width="1" height="1" fill="#9da5b4"/><rect x="43" y="63" width="1" height="1" fill="#9da5b4"/><rect x="45" y="63" width="3" height="1" fill="#9da5b4"/><rect x="53" y="63" width="2" height="1" fill="#9da5b4"/><rect x="56" y="63" width="2" height="1" fill="#9da5b4"/><rect x="61" y="63" width="1" height="1" fill="#9da5b4"/><rect x="64" y="63" width="2" height="1" fill="#9da5b4"/><rect x="4" y="64" width="1" height="1" fill="#e6e1ec"/><rect x="8" y="64" width="1" height="1" fill="#e6e1ec"/><rect x="12" y="64" width="1" height="1" fill="#e6e1ec"/><rect x="14" y="64" width="1" height="1" fill="#e6e1ec"/><rect x="16" y="64" width="1" height="1" fill="#e6e1ec"/><rect x="20" y="64" width="1" height="1" fill="#e6e1ec"/><rect x="22" y="64" width="1" height="1" fill="#e6e1ec"/><rect x="24" y="64" width="1" height="1" fill="#e6e1ec"/><rect x="27" y="64" width="1" height="1" fill="#e6e1ec"/><rect x="30" y="64" width="1" height="1" fill="#e6e1ec"/><rect x="32" y="64" width="1" height="1" fill="#e6e1ec"/><rect x="38" y="64" width="1" height="1" fill="#9da5b4"/><rect x="41" y="64" width="1" height="1" fill="#9da5b4"/><rect x="43" y="64" width="1" height="1" fill="#9da5b4"/><rect x="45" y="64" width="1" height="1" fill="#9da5b4"/><rect x="52" y="64" width="1" height="1" fill="#9da5b4"/><rect x="56" y="64" width="1" height="1" fill="#9da5b4"/><rect x="58" y="64" width="1" height="1" fill="#9da5b4"/><rect x="60" y="64" width="1" height="1" fill="#9da5b4"/><rect x="62" y="64" width="1" height="1" fill="#9da5b4"/><rect x="64" y="64" width="1" height="1" fill="#9da5b4"/><rect x="66" y="64" width="1" height="1" fill="#9da5b4"/><rect x="4" y="65" width="1" height="1" fill="#e6e1ec"/><rect x="8" y="65" width="1" height="1" fill="#e6e1ec"/><rect x="12" y="65" width="3" height="1" fill="#e6e1ec"/><rect x="16" y="65" width="1" height="1" fill="#e6e1ec"/><rect x="18" y="65" width="1" height="1" fill="#e6e1ec"/><rect x="20" y="65" width="1" height="1" fill="#e6e1ec"/><rect x="22" y="65" width="1" height="1" fill="#e6e1ec"/><rect x="24" y="65" width="1" height="1" fill="#e6e1ec"/><rect x="27" y="65" width="1" height="1" fill="#e6e1ec"/><rect x="30" y="65" width="3" height="1" fill="#e6e1ec"/><rect x="38" y="65" width="1" height="1" fill="#9da5b4"/><rect x="41" y="65" width="3" height="1" fill="#9da5b4"/><rect x="45" y="65" width="2" height="1" fill="#9da5b4"/><rect x="52" y="65" width="1" height="1" fill="#9da5b4"/><rect x="56" y="65" width="2" height="1" fill="#9da5b4"/><rect x="60" y="65" width="3" height="1" fill="#9da5b4"/><rect x="64" y="65" width="2" height="1" fill="#9da5b4"/><rect x="4" y="66" width="1" height="1" fill="#e6e1ec"/><rect x="8" y="66" width="1" height="1" fill="#e6e1ec"/><rect x="12" y="66" width="1" height="1" fill="#e6e1ec"/><rect x="14" y="66" width="1" height="1" fill="#e6e1ec"/><rect x="16" y="66" width="2" height="1" fill="#e6e1ec"/><rect x="19" y="66" width="2" height="1" fill="#e6e1ec"/><rect x="22" y="66" width="1" height="1" fill="#e6e1ec"/><rect x="24" y="66" width="1" height="1" fill="#e6e1ec"/><rect x="27" y="66" width="1" height="1" fill="#e6e1ec"/><rect x="30" y="66" width="1" height="1" fill="#e6e1ec"/><rect x="32" y="66" width="1" height="1" fill="#e6e1ec"/><rect x="38" y="66" width="1" height="1" fill="#9da5b4"/><rect x="41" y="66" width="1" height="1" fill="#9da5b4"/><rect x="43" y="66" width="1" height="1" fill="#9da5b4"/><rect x="45" y="66" width="1" height="1" fill="#9da5b4"/><rect x="52" y="66" width="1" height="1" fill="#9da5b4"/><rect x="56" y="66" width="1" height="1" fill="#9da5b4"/><rect x="58" y="66" width="1" height="1" fill="#9da5b4"/><rect x="60" y="66" width="1" height="1" fill="#9da5b4"/><rect x="62" y="66" width="1" height="1" fill="#9da5b4"/><rect x="64" y="66" width="1" height="1" fill="#9da5b4"/><rect x="66" y="66" width="1" height="1" fill="#9da5b4"/><rect x="5" y="67" width="2" height="1" fill="#e6e1ec"/><rect x="8" y="67" width="3" height="1" fill="#e6e1ec"/><rect x="12" y="67" width="1" height="1" fill="#e6e1ec"/><rect x="14" y="67" width="1" height="1" fill="#e6e1ec"/><rect x="16" y="67" width="1" height="1" fill="#e6e1ec"/><rect x="20" y="67" width="1" height="1" fill="#e6e1ec"/><rect x="22" y="67" width="2" height="1" fill="#e6e1ec"/><rect x="26" y="67" width="3" height="1" fill="#e6e1ec"/><rect x="30" y="67" width="1" height="1" fill="#e6e1ec"/><rect x="32" y="67" width="1" height="1" fill="#e6e1ec"/><rect x="38" y="67" width="1" height="1" fill="#9da5b4"/><rect x="41" y="67" width="1" height="1" fill="#9da5b4"/><rect x="43" y="67" width="1" height="1" fill="#9da5b4"/><rect x="45" y="67" width="3" height="1" fill="#9da5b4"/><rect x="53" y="67" width="2" height="1" fill="#9da5b4"/><rect x="56" y="67" width="1" height="1" fill="#9da5b4"/><rect x="58" y="67" width="1" height="1" fill="#9da5b4"/><rect x="60" y="67" width="1" height="1" fill="#9da5b4"/><rect x="62" y="67" width="1" height="1" fill="#9da5b4"/><rect x="64" y="67" width="2" height="1" fill="#9da5b4"/><rect x="46" y="71" width="2" height="1" fill="#ff6b9a"/><rect x="49" y="71" width="2" height="1" fill="#ff6b9a"/><rect x="54" y="71" width="2" height="1" fill="#454b57"/><rect x="57" y="71" width="2" height="1" fill="#454b57"/><rect x="62" y="71" width="2" height="1" fill="#454b57"/><rect x="65" y="71" width="2" height="1" fill="#454b57"/><rect x="70" y="71" width="2" height="1" fill="#454b57"/><rect x="73" y="71" width="2" height="1" fill="#454b57"/><rect x="78" y="71" width="2" height="1" fill="#454b57"/><rect x="81" y="71" width="2" height="1" fill="#454b57"/><rect x="5" y="72" width="2" height="1" fill="#c678dd"/><rect x="8" y="72" width="3" height="1" fill="#c678dd"/><rect x="13" y="72" width="1" height="1" fill="#c678dd"/><rect x="16" y="72" width="2" height="1" fill="#c678dd"/><rect x="20" y="72" width="1" height="1" fill="#c678dd"/><rect x="22" y="72" width="1" height="1" fill="#c678dd"/><rect x="24" y="72" width="3" height="1" fill="#c678dd"/><rect x="28" y="72" width="1" height="1" fill="#c678dd"/><rect x="31" y="72" width="1" height="1" fill="#c678dd"/><rect x="34" y="72" width="2" height="1" fill="#c678dd"/><rect x="45" y="72" width="7" height="1" fill="#ff6b9a"/><rect x="53" y="72" width="7" height="1" fill="#454b57"/><rect x="61" y="72" width="7" height="1" fill="#454b57"/><rect x="69" y="72" width="7" height="1" fill="#454b57"/><rect x="77" y="72" width="7" height="1" fill="#454b57"/><rect x="4" y="73" width="1" height="1" fill="#c678dd"/><rect x="9" y="73" width="1" height="1" fill="#c678dd"/><rect x="12" y="73" width="1" height="1" fill="#c678dd"/><rect x="14" y="73" width="1" height="1" fill="#c678dd"/><rect x="16" y="73" width="1" height="1" fill="#c678dd"/><rect x="18" y="73" width="1" height="1" fill="#c678dd"/><rect x="20" y="73" width="1" height="1" fill="#c678dd"/><rect x="22" y="73" width="1" height="1" fill="#c678dd"/><rect x="25" y="73" width="1" height="1" fill="#c678dd"/><rect x="28" y="73" width="2" height="1" fill="#c678dd"/><rect x="31" y="73" width="1" height="1" fill="#c678dd"/><rect x="33" y="73" width="1" height="1" fill="#c678dd"/><rect x="45" y="73" width="7" height="1" fill="#ff6b9a"/><rect x="53" y="73" width="7" height="1" fill="#454b57"/><rect x="61" y="73" width="7" height="1" fill="#454b57"/><rect x="69" y="73" width="7" height="1" fill="#454b57"/><rect x="77" y="73" width="7" height="1" fill="#454b57"/><rect x="5" y="74" width="1" height="1" fill="#c678dd"/><rect x="9" y="74" width="1" height="1" fill="#c678dd"/><rect x="12" y="74" width="3" height="1" fill="#c678dd"/><rect x="16" y="74" width="2" height="1" fill="#c678dd"/><rect x="20" y="74" width="1" height="1" fill="#c678dd"/><rect x="22" y="74" width="1" height="1" fill="#c678dd"/><rect x="25" y="74" width="1" height="1" fill="#c678dd"/><rect x="28" y="74" width="1" height="1" fill="#c678dd"/><rect x="30" y="74" width="2" height="1" fill="#c678dd"/><rect x="33" y="74" width="1" height="1" fill="#c678dd"/><rect x="35" y="74" width="1" height="1" fill="#c678dd"/><rect x="46" y="74" width="5" height="1" fill="#ff6b9a"/><rect x="54" y="74" width="5" height="1" fill="#454b57"/><rect x="62" y="74" width="5" height="1" fill="#454b57"/><rect x="70" y="74" width="5" height="1" fill="#454b57"/><rect x="78" y="74" width="5" height="1" fill="#454b57"/><rect x="6" y="75" width="1" height="1" fill="#c678dd"/><rect x="9" y="75" width="1" height="1" fill="#c678dd"/><rect x="12" y="75" width="1" height="1" fill="#c678dd"/><rect x="14" y="75" width="1" height="1" fill="#c678dd"/><rect x="16" y="75" width="1" height="1" fill="#c678dd"/><rect x="18" y="75" width="1" height="1" fill="#c678dd"/><rect x="21" y="75" width="1" height="1" fill="#c678dd"/><rect x="25" y="75" width="1" height="1" fill="#c678dd"/><rect x="28" y="75" width="1" height="1" fill="#c678dd"/><rect x="31" y="75" width="1" height="1" fill="#c678dd"/><rect x="33" y="75" width="1" height="1" fill="#c678dd"/><rect x="35" y="75" width="1" height="1" fill="#c678dd"/><rect x="47" y="75" width="3" height="1" fill="#ff6b9a"/><rect x="55" y="75" width="3" height="1" fill="#454b57"/><rect x="63" y="75" width="3" height="1" fill="#454b57"/><rect x="71" y="75" width="3" height="1" fill="#454b57"/><rect x="79" y="75" width="3" height="1" fill="#454b57"/><rect x="4" y="76" width="2" height="1" fill="#c678dd"/><rect x="9" y="76" width="1" height="1" fill="#c678dd"/><rect x="12" y="76" width="1" height="1" fill="#c678dd"/><rect x="14" y="76" width="1" height="1" fill="#c678dd"/><rect x="16" y="76" width="1" height="1" fill="#c678dd"/><rect x="18" y="76" width="1" height="1" fill="#c678dd"/><rect x="21" y="76" width="1" height="1" fill="#c678dd"/><rect x="24" y="76" width="3" height="1" fill="#c678dd"/><rect x="28" y="76" width="1" height="1" fill="#c678dd"/><rect x="31" y="76" width="1" height="1" fill="#c678dd"/><rect x="34" y="76" width="2" height="1" fill="#c678dd"/><rect x="48" y="76" width="1" height="1" fill="#ff6b9a"/><rect x="56" y="76" width="1" height="1" fill="#454b57"/><rect x="64" y="76" width="1" height="1" fill="#454b57"/><rect x="72" y="76" width="1" height="1" fill="#454b57"/><rect x="80" y="76" width="1" height="1" fill="#454b57"/><rect x="5" y="80" width="2" height="1" fill="#9da5b4"/><rect x="8" y="80" width="3" height="1" fill="#9da5b4"/><rect x="12" y="80" width="2" height="1" fill="#9da5b4"/><rect x="16" y="80" width="3" height="1" fill="#9da5b4"/><rect x="21" y="80" width="1" height="1" fill="#9da5b4"/><rect x="24" y="80" width="1" height="1" fill="#9da5b4"/><rect x="26" y="80" width="1" height="1" fill="#9da5b4"/><rect x="30" y="80" width="3" height="1" fill="#e6e1ec"/><rect x="34" y="80" width="2" height="1" fill="#e6e1ec"/><rect x="44" y="80" width="2" height="1" fill="#9da5b4"/><rect x="48" y="80" width="3" height="1" fill="#9da5b4"/><rect x="53" y="80" width="2" height="1" fill="#9da5b4"/><rect x="56" y="80" width="3" height="1" fill="#9da5b4"/><rect x="62" y="80" width="2" height="1" fill="#e6e1ec"/><rect x="66" y="80" width="2" height="1" fill="#e6e1ec"/><rect x="4" y="81" width="1" height="1" fill="#9da5b4"/><rect x="9" y="81" width="1" height="1" fill="#9da5b4"/><rect x="12" y="81" width="1" height="1" fill="#9da5b4"/><rect x="14" y="81" width="1" height="1" fill="#9da5b4"/><rect x="16" y="81" width="1" height="1" fill="#9da5b4"/><rect x="20" y="81" width="1" height="1" fill="#9da5b4"/><rect x="22" y="81" width="1" height="1" fill="#9da5b4"/><rect x="24" y="81" width="1" height="1" fill="#9da5b4"/><rect x="26" y="81" width="1" height="1" fill="#9da5b4"/><rect x="30" y="81" width="1" height="1" fill="#e6e1ec"/><rect x="32" y="81" width="1" height="1" fill="#e6e1ec"/><rect x="34" y="81" width="1" height="1" fill="#e6e1ec"/><rect x="36" y="81" width="1" height="1" fill="#e6e1ec"/><rect x="44" y="81" width="1" height="1" fill="#9da5b4"/><rect x="46" y="81" width="1" height="1" fill="#9da5b4"/><rect x="48" y="81" width="1" height="1" fill="#9da5b4"/><rect x="52" y="81" width="1" height="1" fill="#9da5b4"/><rect x="57" y="81" width="1" height="1" fill="#9da5b4"/><rect x="64" y="81" width="1" height="1" fill="#e6e1ec"/><rect x="66" y="81" width="1" height="1" fill="#e6e1ec"/><rect x="68" y="81" width="1" height="1" fill="#e6e1ec"/><rect x="5" y="82" width="1" height="1" fill="#9da5b4"/><rect x="9" y="82" width="1" height="1" fill="#9da5b4"/><rect x="12" y="82" width="2" height="1" fill="#9da5b4"/><rect x="16" y="82" width="2" height="1" fill="#9da5b4"/><rect x="20" y="82" width="3" height="1" fill="#9da5b4"/><rect x="24" y="82" width="2" height="1" fill="#9da5b4"/><rect x="30" y="82" width="1" height="1" fill="#e6e1ec"/><rect x="32" y="82" width="1" height="1" fill="#e6e1ec"/><rect x="34" y="82" width="1" height="1" fill="#e6e1ec"/><rect x="36" y="82" width="1" height="1" fill="#e6e1ec"/><rect x="44" y="82" width="2" height="1" fill="#9da5b4"/><rect x="48" y="82" width="2" height="1" fill="#9da5b4"/><rect x="53" y="82" width="1" height="1" fill="#9da5b4"/><rect x="57" y="82" width="1" height="1" fill="#9da5b4"/><rect x="63" y="82" width="1" height="1" fill="#e6e1ec"/><rect x="66" y="82" width="1" height="1" fill="#e6e1ec"/><rect x="68" y="82" width="1" height="1" fill="#e6e1ec"/><rect x="6" y="83" width="1" height="1" fill="#9da5b4"/><rect x="9" y="83" width="1" height="1" fill="#9da5b4"/><rect x="12" y="83" width="1" height="1" fill="#9da5b4"/><rect x="14" y="83" width="1" height="1" fill="#9da5b4"/><rect x="16" y="83" width="1" height="1" fill="#9da5b4"/><rect x="20" y="83" width="1" height="1" fill="#9da5b4"/><rect x="22" y="83" width="1" height="1" fill="#9da5b4"/><rect x="24" y="83" width="1" height="1" fill="#9da5b4"/><rect x="26" y="83" width="1" height="1" fill="#9da5b4"/><rect x="30" y="83" width="1" height="1" fill="#e6e1ec"/><rect x="32" y="83" width="1" height="1" fill="#e6e1ec"/><rect x="34" y="83" width="1" height="1" fill="#e6e1ec"/><rect x="36" y="83" width="1" height="1" fill="#e6e1ec"/><rect x="44" y="83" width="1" height="1" fill="#9da5b4"/><rect x="46" y="83" width="1" height="1" fill="#9da5b4"/><rect x="48" y="83" width="1" height="1" fill="#9da5b4"/><rect x="54" y="83" width="1" height="1" fill="#9da5b4"/><rect x="57" y="83" width="1" height="1" fill="#9da5b4"/><rect x="64" y="83" width="1" height="1" fill="#e6e1ec"/><rect x="66" y="83" width="1" height="1" fill="#e6e1ec"/><rect x="68" y="83" width="1" height="1" fill="#e6e1ec"/><rect x="4" y="84" width="2" height="1" fill="#9da5b4"/><rect x="9" y="84" width="1" height="1" fill="#9da5b4"/><rect x="12" y="84" width="1" height="1" fill="#9da5b4"/><rect x="14" y="84" width="1" height="1" fill="#9da5b4"/><rect x="16" y="84" width="3" height="1" fill="#9da5b4"/><rect x="20" y="84" width="1" height="1" fill="#9da5b4"/><rect x="22" y="84" width="1" height="1" fill="#9da5b4"/><rect x="24" y="84" width="1" height="1" fill="#9da5b4"/><rect x="26" y="84" width="1" height="1" fill="#9da5b4"/><rect x="30" y="84" width="3" height="1" fill="#e6e1ec"/><rect x="34" y="84" width="2" height="1" fill="#e6e1ec"/><rect x="44" y="84" width="2" height="1" fill="#9da5b4"/><rect x="48" y="84" width="3" height="1" fill="#9da5b4"/><rect x="52" y="84" width="2" height="1" fill="#9da5b4"/><rect x="57" y="84" width="1" height="1" fill="#9da5b4"/><rect x="62" y="84" width="2" height="1" fill="#e6e1ec"/><rect x="66" y="84" width="2" height="1" fill="#e6e1ec"/></g></svg>
